<svg enable-background="new 0 0 64 64" viewBox="0 0 64 64" xmlns="http://www.w3.org/2000/svg"><path d="m32 0c17.7 0 32 14.3 32 32s-14.3 32-32 32-32-14.3-32-32 14.3-32 32-32z" fill="#4ac694"/><path d="m52 17h-40c-.6 0-1 .4-1 1v30c0 .6.4 1 1 1h14.3c1 0 1.9.4 2.4 1.2.7 1.1 1.9 1.8 3.3 1.8s2.6-.7 3.3-1.8c.5-.8 1.5-1.2 2.4-1.2h14.3c.6 0 1-.4 1-1v-30c0-.6-.4-1-1-1z" fill="#424c72"/><path d="m14 28v18h16c1.1 0 2 .9 2 2 0-1.1.9-2 2-2h16v-18z" fill="#e4e7ef"/><path d="m35 13c-1.7 0-3 1.3-3 3 0-1.7-1.3-3-3-3h-15v31h16c1.1 0 2 .9 2 2 0-1.1.9-2 2-2h16v-31z" fill="#fff"/><path d="m18 16h4v7h-4z" fill="#57d1f7"/><g fill="#e4e7ef"><path d="m29 26.5h-11c-.3 0-.5-.2-.5-.5s.2-.5.5-.5h11c.3 0 .5.2.5.5s-.2.5-.5.5z"/><path d="m29 23.5h-4.4c-.3 0-.5-.2-.5-.5s.2-.5.5-.5h4.4c.3 0 .5.2.5.5s-.2.5-.5.5z"/><path d="m29 20.5h-4.4c-.3 0-.5-.2-.5-.5s.2-.5.5-.5h4.4c.3 0 .5.2.5.5s-.2.5-.5.5z"/><path d="m29 17.5h-4.4c-.3 0-.5-.2-.5-.5s.2-.5.5-.5h4.4c.3 0 .5.2.5.5s-.2.5-.5.5z"/><path d="m29 29.5h-11c-.3 0-.5-.2-.5-.5s.2-.5.5-.5h11c.3 0 .5.2.5.5s-.2.5-.5.5z"/><path d="m29 32.5h-11c-.3 0-.5-.2-.5-.5s.2-.5.5-.5h11c.3 0 .5.2.5.5s-.2.5-.5.5z"/><path d="m29 35.5h-11c-.3 0-.5-.2-.5-.5s.2-.5.5-.5h11c.3 0 .5.2.5.5s-.2.5-.5.5z"/><path d="m29 38.5h-11c-.3 0-.5-.2-.5-.5s.2-.5.5-.5h11c.3 0 .5.2.5.5s-.2.5-.5.5z"/><path d="m29 41.5h-11c-.3 0-.5-.2-.5-.5s.2-.5.5-.5h11c.3 0 .5.2.5.5s-.2.5-.5.5z"/><path d="m46 26.5h-11c-.3 0-.5-.2-.5-.5s.2-.5.5-.5h11c.3 0 .5.2.5.5s-.2.5-.5.5z"/><path d="m46 29.5h-11c-.3 0-.5-.2-.5-.5s.2-.5.5-.5h11c.3 0 .5.2.5.5s-.2.5-.5.5z"/><path d="m46 20.5h-11c-.3 0-.5-.2-.5-.5s.2-.5.5-.5h11c.3 0 .5.2.5.5s-.2.5-.5.5z"/><path d="m46 17.5h-11c-.3 0-.5-.2-.5-.5s.2-.5.5-.5h11c.3 0 .5.2.5.5s-.2.5-.5.5z"/><path d="m46 23.5h-11c-.3 0-.5-.2-.5-.5s.2-.5.5-.5h11c.3 0 .5.2.5.5s-.2.5-.5.5z"/><path d="m46 32.5h-11c-.3 0-.5-.2-.5-.5s.2-.5.5-.5h11c.3 0 .5.2.5.5s-.2.5-.5.5z"/><path d="m46 35.5h-11c-.3 0-.5-.2-.5-.5s.2-.5.5-.5h11c.3 0 .5.2.5.5s-.2.5-.5.5z"/><path d="m46 38.5h-11c-.3 0-.5-.2-.5-.5s.2-.5.5-.5h11c.3 0 .5.2.5.5s-.2.5-.5.5z"/><path d="m46 41.5h-11c-.3 0-.5-.2-.5-.5s.2-.5.5-.5h11c.3 0 .5.2.5.5s-.2.5-.5.5z"/></g></svg>