<svg height="128" viewBox="0 0 128 128" width="128" xmlns="http://www.w3.org/2000/svg"><path d="m.00034-.00018h128v128h-128z" fill="#5dacdf"/><rect fill="none" height="93.811" rx="1.857" stroke="#fff" stroke-width="4.785852" width="103.214" x="12.39334" y="17.09482"/><g fill="#fff" transform="matrix(2.3495262 0 0 2.3495262 -359.31244 -1583.03778)"><path d="m163.94765 686.42298c-.38058 0-.68819.2853-.68819.6388v7.0865c0 .3535.30762.6392.68819.6392h32.44367c.37849 0 .68778-.2877.68778-.6392v-7.0865c0-.3535-.3072-.6388-.68778-.6388zm3.93921 1.6958a2.4863311 2.4863311 0 0 1 2.48647 2.4865 2.4863311 2.4863311 0 0 1 -2.48647 2.4864 2.4863311 2.4863311 0 0 1 -2.48605-2.4864 2.4863311 2.4863311 0 0 1 2.48605-2.4865zm0 1.1881a1.29858 1.29858 0 0 0 -1.29836 1.2984 1.29858 1.29858 0 0 0 1.29836 1.2987 1.29858 1.29858 0 0 0 1.29878-1.2987 1.29858 1.29858 0 0 0 -1.29878-1.2984z"/><path d="m163.94765 696.82628c-.38058 0-.68819.2853-.68819.6388v7.0865c0 .3534.30762.6392.68819.6392h32.44367c.37849 0 .68778-.2877.68778-.6392v-7.0865c0-.3535-.3072-.6388-.68778-.6388zm3.93921 1.6958a2.4863311 2.4863311 0 0 1 2.48647 2.4864 2.4863311 2.4863311 0 0 1 -2.48647 2.4865 2.4863311 2.4863311 0 0 1 -2.48605-2.4865 2.4863311 2.4863311 0 0 1 2.48605-2.4864zm0 1.1881a1.29858 1.29858 0 0 0 -1.29836 1.2983 1.29858 1.29858 0 0 0 1.29836 1.2988 1.29858 1.29858 0 0 0 1.29878-1.2988 1.29858 1.29858 0 0 0 -1.29878-1.2983z"/><path d="m163.94765 707.22958c-.38058 0-.68819.2853-.68819.6388v7.0865c0 .3534.30762.6391.68819.6391h32.44367c.37849 0 .68778-.2876.68778-.6391v-7.0865c0-.3535-.3072-.6388-.68778-.6388zm3.93921 1.6957a2.4863311 2.4863311 0 0 1 2.48647 2.4865 2.4863311 2.4863311 0 0 1 -2.48647 2.4865 2.4863311 2.4863311 0 0 1 -2.48605-2.4865 2.4863311 2.4863311 0 0 1 2.48605-2.4865zm0 1.1881a1.29858 1.29858 0 0 0 -1.29836 1.2984 1.29858 1.29858 0 0 0 1.29836 1.2988 1.29858 1.29858 0 0 0 1.29878-1.2988 1.29858 1.29858 0 0 0 -1.29878-1.2984z"/></g></svg>