<svg height="96" width="96" xmlns="http://www.w3.org/2000/svg" xmlns:xlink="http://www.w3.org/1999/xlink"><linearGradient id="a"><stop offset="0" stop-color="#fff"/><stop offset="1" stop-color="#fff" stop-opacity="0"/></linearGradient><linearGradient id="b" gradientUnits="userSpaceOnUse" x1="158" x2="158" y1="90" y2="5.987717"><stop offset="0" stop-color="#2276c5"/><stop offset="1" stop-color="#68baf4"/></linearGradient><linearGradient id="c" gradientTransform="matrix(1.0058652 0 0 .994169 100 0)" gradientUnits="userSpaceOnUse" x1="45.447727" x2="45.447727" y1="92.539597" y2="7.01654"><stop offset="0"/><stop offset="1" stop-opacity=".588235"/></linearGradient><linearGradient id="d" gradientTransform="matrix(1.0238095 0 0 1.0119048 -1.142857 -98.071429)" gradientUnits="userSpaceOnUse" x1="32.251034" x2="32.251034" xlink:href="#c" y1="6.131708" y2="90.238609"/><linearGradient id="e" gradientTransform="translate(0 -97)" gradientUnits="userSpaceOnUse" x1="32.251034" x2="32.251034" xlink:href="#c" y1="6.131708" y2="90.238609"/><radialGradient id="f" cx="48" cy="87.792389" gradientTransform="matrix(1 -.00000007 .00000008 1.2557894 109.99999 -24.505592)" gradientUnits="userSpaceOnUse" r="42"><stop offset="0" stop-color="#fff" stop-opacity=".717557"/><stop offset="1" stop-color="#fff"/></radialGradient><linearGradient id="g" gradientTransform="matrix(1 0 0 -1 0 92)" gradientUnits="userSpaceOnUse" x1="48" x2="48" xlink:href="#a" y1="88" y2="-40"/><linearGradient id="h" gradientUnits="userSpaceOnUse" spreadMethod="reflect" x1="48" x2="112.12357" xlink:href="#a" y1="82" y2="82.454597"/><linearGradient id="i" gradientUnits="userSpaceOnUse" spreadMethod="reflect" x1="90" x2="48" y1="88" y2="88"><stop offset="0" stop-opacity=".588235"/><stop offset=".11780351" stop-opacity=".470588"/><stop offset=".23809524" stop-opacity=".392157"/><stop offset="1" stop-opacity=".313726"/></linearGradient><linearGradient id="j" gradientUnits="userSpaceOnUse" x1="49.978714" x2="49.978714" xlink:href="#a" y1="82.681816" y2="-5.732462"/><clipPath id="k"><rect height="84" rx="6" width="84" x="6" y="6"/></clipPath><filter id="l" color-interpolation-filters="sRGB" height="1.403579" width="1.570683" x="-.285341" y="-.201789"><feGaussianBlur stdDeviation="7.6796946"/></filter><linearGradient id="m" gradientUnits="userSpaceOnUse" x1="47.753529" x2="47.753529" y1="90.218231" y2="6.346539"><stop offset="0" stop-color="#5a5a5a"/><stop offset="1" stop-color="#909090"/></linearGradient><clipPath id="n"><rect height="84" rx="6" width="84" x="16" y="6"/></clipPath><filter id="o" color-interpolation-filters="sRGB" height="1.24" width="1.24" x="-.12" y="-.12"><feGaussianBlur stdDeviation="4.2"/></filter><linearGradient id="p" gradientUnits="userSpaceOnUse" x1="47.753529" x2="47.753529" y1="90.218231" y2="6.346539"><stop offset="0" stop-color="#d2d2d2"/><stop offset="1" stop-color="#f0f0f0"/></linearGradient><radialGradient id="q" cx="48" cy="90.171875" gradientTransform="matrix(1.1573129 0 0 .99590774 -7.551021 .197132)" gradientUnits="userSpaceOnUse" r="42" xlink:href="#a"/><clipPath id="r"><path d="m12 6c-3.324 0-6 2.676-6 6v72c0 3.324 2.676 6 6 6h72c3.324 0 6-2.676 6-6v-72c0-3.324-2.676-6-6-6zm7.5 9h57c2.493 0 4.5 2.007 4.5 4.5v53c0 2.493-2.007 4.5-4.5 4.5h-57c-2.493 0-4.5-2.007-4.5-4.5v-53c0-2.493 2.007-4.5 4.5-4.5z"/></clipPath><linearGradient id="s" gradientTransform="matrix(-.13333333 0 0 1.0909091 62.35643 .636363)" gradientUnits="userSpaceOnUse" x1="55.619888" x2="39.929382" xlink:href="#t" y1="35.701611" y2="35.701611"/><linearGradient id="t"><stop offset="0"/><stop offset="1" stop-opacity="0"/></linearGradient><linearGradient id="u" gradientTransform="matrix(.13333333 0 0 1.0909091 33.6 .636363)" gradientUnits="userSpaceOnUse" x1="55.619888" x2="39.929382" xlink:href="#t" y1="35.701611" y2="35.701611"/><linearGradient id="v" gradientTransform="matrix(.86666667 0 0 1.3636363 6.4 -8.454543)" gradientUnits="userSpaceOnUse" x1="46.79694" x2="46.79694" y1="31.65823" y2="42.515114"><stop offset="0" stop-color="#8d8d8d"/><stop offset=".25843728" stop-color="#fff"/><stop offset=".54385865" stop-color="#686868"/><stop offset="1" stop-color="#b1b1b1"/></linearGradient><linearGradient id="w" gradientTransform="matrix(1 0 0 .88235294 0 2.294117)" gradientUnits="userSpaceOnUse" x1="50.498287" x2="50.498287" y1="42.38448" y2="53.953835"><stop offset="0" stop-color="#4d4d4d"/><stop offset="1" stop-color="#878787"/></linearGradient><linearGradient id="x" gradientTransform="matrix(.97916667 0 0 1 1.489583 1)" gradientUnits="userSpaceOnUse" x1="34.15395" x2="34.15395" y1="33.945866" y2="46.010723"><stop offset="0" stop-color="#d40000"/><stop offset=".33869192" stop-color="#ff8c67"/><stop offset=".60884869" stop-color="#d40000"/><stop offset="1" stop-color="#6e0000"/></linearGradient><linearGradient id="y" gradientTransform="matrix(.86666667 0 0 1.7454545 -14.6 -16.981815)" gradientUnits="userSpaceOnUse" x1="46.79694" x2="46.79694" y1="31.771585" y2="36.256687"><stop offset="0" stop-color="#8d8d8d"/><stop offset=".32500392" stop-color="#fff"/><stop offset=".5802148" stop-color="#686868"/><stop offset="1" stop-color="#b3b3b3"/></linearGradient><filter id="z" color-interpolation-filters="sRGB"><feGaussianBlur stdDeviation=".4875"/></filter><linearGradient id="A" gradientUnits="userSpaceOnUse" x1="50.252888" x2="50.252888" y1="18.248539" y2="73.615822"><stop offset="0" stop-color="#525252"/><stop offset=".21238038" stop-color="#cecece"/><stop offset=".60427487" stop-color="#fdfdfd"/><stop offset=".74339777" stop-color="#7c7c7c"/><stop offset="1" stop-color="#040404"/></linearGradient><linearGradient id="B" gradientUnits="userSpaceOnUse" x1="48.961185" x2="48.961185" xlink:href="#a" y1="78.065437" y2="18.06966"/><g><g fill="url(#d)"><path d="m12-95.03125c-5.5110903 0-10.03125 4.52016-10.03125 10.03125v71c0 5.5110902 4.5201598 10.03125 10.03125 10.03125h72c5.51109 0 10.03125-4.5201597 10.03125-10.03125v-71c0-5.51109-4.52016-10.03125-10.03125-10.03125z" opacity=".08" transform="scale(1 -1)"/><path d="m12-94.03125c-4.971633 0-9.03125 4.059617-9.03125 9.03125v71c0 4.9716329 4.0596171 9.03125 9.03125 9.03125h72c4.971633 0 9.03125-4.059617 9.03125-9.03125v-71c0-4.971633-4.059617-9.03125-9.03125-9.03125z" opacity=".1" transform="scale(1 -1)"/><path d="m12-93c-4.4091333 0-8 3.590867-8 8v71c0 4.4091333 3.5908667 8 8 8h72c4.409133 0 8-3.5908667 8-8v-71c0-4.409133-3.590867-8-8-8z" opacity=".2" transform="scale(1 -1)"/><rect height="85" opacity=".3" rx="7" transform="scale(1 -1)" width="86" x="5" y="-92"/></g><rect fill="url(#e)" height="84" opacity=".45" rx="6" transform="scale(1 -1)" width="84" x="6" y="-91"/></g><g><rect fill="url(#b)" height="84" rx="6" width="84" x="116" y="6"/><path d="m120.78125 6.125c-2.73902.5576484-4.78125 2.9665-4.78125 5.875v68c0 3.324 2.676 6 6 6h72c3.324 0 6-2.676 6-6v-68c0-2.9085-2.04223-5.3173516-4.78125-5.875 2.20512.5362071 3.8125 2.4908437 3.8125 4.875v68c0 2.80489-2.22636 5.03125-5.03125 5.03125h-72c-2.80489 0-5.03125-2.22636-5.03125-5.03125v-68c0-2.3841563 1.60738-4.3387929 3.8125-4.875z" fill="url(#f)" opacity=".2"/><path d="m6 78v2c0 3.324 2.676 6 6 6h72c3.324 0 6-2.676 6-6v-2c0 3.324-2.676 6-6 6h-72c-3.324 0-6-2.676-6-6z" fill="url(#h)" opacity=".1"/><path d="m6 100v1c0 3.324 2.676 6 6 6h72c3.324 0 6-2.676 6-6v-1c0 3.324-2.676 6-6 6h-72c-3.324 0-6-2.676-6-6z" opacity=".15"/><path d="m12 11.65625c-.281536 0-.34375.06221-.34375.34375v68c0 .281536.06221.34375.34375.34375h72c.281536 0 .34375-.06221.34375-.34375v-68c0-.281536-.06221-.34375-.34375-.34375z" fill="url(#p)"/><path clip-path="url(#n)" d="m22 6c-3.324 0-6 2.676-6 6v72c0 3.324 2.676 6 6 6h72c3.324 0 6-2.676 6-6v-72c0-3.324-2.676-6-6-6zm8 10h56c2.216 0 4 1.784 4 4v52c0 2.216-1.784 4-4 4h-56c-2.216 0-4-1.784-4-4v-52c0-2.216 1.784-4 4-4z" filter="url(#o)" opacity=".7" transform="translate(-10)"/><path d="m12 6c-3.324 0-6 2.676-6 6v72c0 3.324 2.676 6 6 6h72c3.324 0 6-2.676 6-6v-72c0-3.324-2.676-6-6-6zm8 10h56c2.216 0 4 1.784 4 4v52c0 2.216-1.784 4-4 4h-56c-2.216 0-4-1.784-4-4v-52c0-2.216 1.784-4 4-4z" fill="url(#m)"/><path clip-path="url(#k)" d="m47.84375 2.40625c-11.917021.0265152-23.567327 4.7235773-32.21875 13.375l32.3125 32.28125 11.8125-44.09375c-3.939354-1.055547-7.93391-1.5713384-11.90625-1.5625zm.09375 45.65625-11.84375 44.125c15.757417 4.222188 32.58977-.27727 44.125-11.8125z" fill="#fff" filter="url(#l)" opacity=".4"/><path d="m20 14.96875c-2.766322 0-5.03125 2.264928-5.03125 5.03125v52c0 2.766322 2.264928 5.03125 5.03125 5.03125h56c2.766322 0 5.03125-2.264928 5.03125-5.03125v-52c0-2.766322-2.264928-5.03125-5.03125-5.03125zm0 1.03125h56c2.216 0 4 1.784 4 4v52c0 2.216-1.784 4-4 4h-56c-2.216 0-4-1.784-4-4v-52c0-2.216 1.784-4 4-4z" fill="#333" opacity=".8"/><path d="m20 13.03125c-3.814344 0-6.96875 3.154406-6.96875 6.96875v52c0 3.814344 3.154406 6.96875 6.96875 6.96875h56c3.814344 0 6.96875-3.154406 6.96875-6.96875v-52c0-3.814344-3.154406-6.96875-6.96875-6.96875zm0 2h56c2.732574 0 4.96875 2.236176 4.96875 4.96875v52c0 2.732574-2.236176 4.96875-4.96875 4.96875h-56c-2.732574 0-4.96875-2.236176-4.96875-4.96875v-52c0-2.732574 2.236176-4.96875 4.96875-4.96875z" fill="url(#j)" opacity=".4"/><path d="m20 16c-2.216 0-4 1.784-4 4v1c0-2.216 1.784-4 4-4h56c2.216 0 4 1.784 4 4v-1c0-2.216-1.784-4-4-4z" opacity=".2"/><path d="m20 17c-2.216 0-4 1.784-4 4v1c0-2.216 1.784-4 4-4h56c2.216 0 4 1.784 4 4v-1c0-2.216-1.784-4-4-4z" opacity=".1"/><path d="m12 86c-3.324 0-6-2.676-6-6v-68c0-3.324 2.676-6 6-6h72c3.324 0 6 2.676 6 6v68c0 3.324-2.676 6-6 6zm0-.96875h72c2.80489 0 5.03125-2.22636 5.03125-5.03125v-68c0-2.80489-2.22636-5.03125-5.03125-5.03125h-72c-2.8048898 0-5.03125 2.22636-5.03125 5.03125v68c0 2.80489 2.2263602 5.03125 5.03125 5.03125z" fill="url(#g)" opacity=".4"/></g><g><path clip-path="url(#r)" d="m61-47-111 111 2 2 111-111zm4 4-111 111 2 2 111-111zm4 4-111 111 2 2 111-111zm4 4-111 111 2 2 111-111zm4 4-111 111 2 2 111-111zm4 4-111 111 2 2 111-111zm4 4-111 111 2 2 111-111zm4 4-111 111 2 2 111-111zm4 4-111 111 2 2 111-111zm4 4-111 111 2 2 111-111zm4 4-111 111 2 2 111-111zm4 4-111 111 2 2 111-111zm4 4-111 111 2 2 111-111zm4 4-111 111 2 2 111-111zm4 4-111 111 2 2 111-111zm4 4-111 111 2 2 111-111zm4 4-111 111 2 2 111-111zm4 4-111 111 2 2 111-111zm4 4-111 111 2 2 111-111zm4 4-111 111 2 2 111-111zm4 4-111 111 2 2 111-111z" opacity=".1"/><path d="m12 90c-3.324 0-6-2.676-6-6v-2-68-2c0-.334721.04135-.6507.09375-.96875.0487-.295596.09704-.596915.1875-.875.00988-.03038.020892-.0636.03125-.09375.098865-.287771.2348802-.547452.375-.8125.1445918-.273507.3156161-.535615.5-.78125s.3737765-.473472.59375-.6875c.439947-.428056.94291-.814526 1.5-1.09375.278545-.139612.5734731-.246947.875-.34375-.2562018.100222-.4867109.236272-.71875.375-.00741.0044-.023866-.0045-.03125 0-.031933.0193-.062293.04251-.09375.0625-.120395.0767-.2310226.163513-.34375.25-.1061728.0808-.2132809.161112-.3125.25-.1779299.161433-.3474596.345388-.5.53125-.1075789.130255-.2183939.265285-.3125.40625-.025089.03838-.038446.08587-.0625.125-.064763.103032-.1302275.204517-.1875.3125-.1010083.194706-.2056748.415701-.28125.625-.00796.02181-.023589.04055-.03125.0625-.0318251.09195-.0358045.186831-.0625.28125-.0303323.106618-.0703894.203031-.09375.3125-.0728786.341512-.125.698205-.125 1.0625v2 68 2c0 2.781848 2.2181517 5 5 5h2 68 2c2.781848 0 5-2.218152 5-5v-2-68-2c0-.364295-.05212-.720988-.125-1.0625-.04415-.206893-.08838-.397658-.15625-.59375-.0077-.02195-.0233-.04069-.03125-.0625-.06274-.173739-.138383-.367449-.21875-.53125-.04158-.0828-.07904-.169954-.125-.25-.0546-.09721-.126774-.18835-.1875-.28125-.09411-.140965-.204921-.275995-.3125-.40625-.143174-.17445-.303141-.346998-.46875-.5-.01117-.0102-.01998-.02115-.03125-.03125-.138386-.125556-.285091-.234436-.4375-.34375-.102571-.07315-.204318-.153364-.3125-.21875-.0074-.0045-.02384.0044-.03125 0-.232039-.138728-.462548-.274778-.71875-.375.301527.0968.596455.204138.875.34375.55709.279224 1.060053.665694 1.5 1.09375.219973.214028.409366.441865.59375.6875s.355408.507743.5.78125c.14012.265048.276135.524729.375.8125.01041.03078.02133.06274.03125.09375.09046.278085.1388.579404.1875.875.0524.31805.09375.634029.09375.96875v2 68 2c0 3.324-2.676 6-6 6z" fill="url(#q)" opacity=".2"/></g><g><path d="m6 80v4c0 3.324 2.676 6 6 6h72c3.324 0 6-2.676 6-6v-4c0 3.324-2.676 6-6 6h-72c-3.324 0-6-2.676-6-6z" fill="url(#i)"/><path d="m6 82v2c0 3.324 2.676 6 6 6h72c3.324 0 6-2.676 6-6v-2c0 3.324-2.676 6-6 6h-72c-3.324 0-6-2.676-6-6z" opacity=".1"/><path d="m6 83v1c0 3.324 2.676 6 6 6h72c3.324 0 6-2.676 6-6v-1c0 3.324-2.676 6-6 6h-72c-3.324 0-6-2.676-6-6z" opacity=".15"/></g><path d="m47.8125 20.6875c-.224194.03645-.448708.13884-.625.28125l-7.5 6-7.5 6c-.407408.324566-.606165.984948-.4375 1.46875.168665.483803.731791.874065 1.25.875h5.09375a.58842457.58842457 0 0 1 .59375.59375v24.1875a.58842457.58842457 0 0 1 -.59375.59375h-5.09375c-.518191.000923-1.081334.391194-1.25.875-.168665.483802.03009 1.144184.4375 1.46875l7.5 6 7.5 6c.437698.34705 1.187302.34705 1.625 0l7.5-6 7.5-6c.407408-.324566.606165-.984948.4375-1.46875-.168665-.483803-.731791-.874065-1.25-.875h-5.09375a.58842457.58842457 0 0 1 -.59375-.59375v-24.1875a.58842457.58842457 0 0 1 .59375-.59375h5.09375c.518191-.000923 1.081334-.391194 1.25-.875.168665-.483802-.03009-1.144184-.4375-1.46875l-7.5-6-7.5-6c-.262027-.210552-.633244-.315028-.96875-.28125-.01001.001-.0213-.0013-.03125 0z" fill="url(#B)" transform="translate(0 -2)"/><path d="m48 20-7.5 6-7.5 6h7v28h-7l7.5 6 7.5 6 7.5-6 7.5-6h-7v-28h7l-7.5-6z" fill="url(#A)"/><path d="m48 20-7.5 6-7.5 6h7v28h-7l7.5 6 7.5 6 7.5-6 7.5-6h-7v-28h7l-7.5-6zm0 3.03125 6.03125 4.8125 2.28125 1.8125h-.3125c-1.225885.004734-2.339016 1.117865-2.34375 2.34375v28c.0047 1.225885 1.117865 2.339016 2.34375 2.34375h.3125l-2.28125 1.8125-6.03125 4.8125-6.03125-4.8125-2.28125-1.8125h.3125c1.225885-.004734 2.339016-1.117865 2.34375-2.34375v-28c-.004734-1.225885-1.117865-2.339016-2.34375-2.34375h-.3125l2.28125-1.8125z" opacity=".1"/><path d="m48 20-7.5 6-7.5 6h7v28h-7l7.5 6 7.5 6 7.5-6 7.5-6h-7v-28h7l-7.5-6zm0 1.96875 6.53125 5.21875 4.09375 3.28125h-2.625c-.802273-.00188-1.53313.728977-1.53125 1.53125v28c-.0019.802273.728977 1.53313 1.53125 1.53125h2.625l-4.09375 3.28125-6.53125 5.21875-6.53125-5.21875-4.09375-3.28125h2.625c.802273.00188 1.53313-.728977 1.53125-1.53125v-28c.00188-.802273-.728977-1.53313-1.53125-1.53125h-2.625l4.09375-3.28125z" opacity=".15"/><path d="m48 20-7.5 6-7.5 6h7v28h-7l7.5 6 7.5 6 7.5-6 7.5-6h-7v-28h7l-7.5-6zm0 1.03125 7 5.59375 5.6875 4.5625h-4.6875c-.427358-.007233-.819733.385142-.8125.8125v28c-.0072.427358.385142.819733.8125.8125h4.6875l-5.6875 4.5625-7 5.59375-7-5.59375-5.6875-4.5625h4.6875c.427358.0072.819733-.385142.8125-.8125v-28c.007233-.427358-.385142-.819733-.8125-.8125h-4.6875l5.6875-4.5625z" opacity=".3"/><path d="m43.5 45c-5.556772 0-10.572557.294226-14.21875.75-1.823097.227887-3.286628.467795-4.34375.78125-.528561.156727-.950962.328464-1.28125.53125s-.65625.496024-.65625.9375h-1.5c-1.376351 0-2.5 1.123649-2.5 2.5v1c0 1.376351 1.123649 2.5 2.5 2.5h1.5c0 .441476.325962.734714.65625.9375s.752689.374523 1.28125.53125c1.057122.313455 2.520653.553363 4.34375.78125 3.646193.455774 8.661978.75 14.21875.75h8c5.556772 0 10.572557-.294226 14.21875-.75 1.823097-.227887 3.286628-.467795 4.34375-.78125.528561-.156727.950962-.328464 1.28125-.53125s.65625-.496024.65625-.9375v-6c0-.441476-.325962-.734714-.65625-.9375s-.752689-.374523-1.28125-.53125c-1.057122-.313455-2.520653-.553363-4.34375-.78125-3.646193-.455774-8.661978-.75-14.21875-.75z" filter="url(#z)" opacity=".15"/><path d="m40 44h16v6h-16z" fill="#333"/><rect fill="url(#y)" height="6" rx="2" stroke="#474747" width="13" x="20.5" y="38"/><rect fill="url(#x)" height="11" rx="19.583334" ry="2.5" stroke="#800000" width="47" x="24.5" y="35.5"/><path d="m41.5 34.5h13v15h-13z" fill="url(#v)" stroke="url(#w)"/><path d="m38.95643 35.104568 2.04357-.104568v12l-2-.104568z" fill="url(#u)" opacity=".6"/><path d="m57 35.104568-2.04357-.104568v12l2-.104568z" fill="url(#s)" opacity=".6"/></svg>